<?xml version="1.0" encoding="UTF-8" standalone="no"?>
<svg
   height="239.10771"
   width="224.80786"
   xml:space="preserve"
   version="1.1"
   id="svg34"
   sodipodi:docname="gast.svg"
   inkscape:version="1.1 (c68e22c387, 2021-05-23)"
   xmlns:inkscape="http://www.inkscape.org/namespaces/inkscape"
   xmlns:sodipodi="http://sodipodi.sourceforge.net/DTD/sodipodi-0.dtd"
   xmlns="http://www.w3.org/2000/svg"
   xmlns:svg="http://www.w3.org/2000/svg"><defs
     id="defs38"><linearGradient
       id="linearGradient2803"
       inkscape:swatch="solid"><stop
         style="stop-color:#460066;stop-opacity:1;"
         offset="0"
         id="stop2801" /></linearGradient></defs><sodipodi:namedview
     id="namedview36"
     pagecolor="#ffffff"
     bordercolor="#666666"
     borderopacity="1.0"
     inkscape:pageshadow="2"
     inkscape:pageopacity="0.0"
     inkscape:pagecheckerboard="0"
     showgrid="false"
     inkscape:zoom="2.6572986"
     inkscape:cx="79.968431"
     inkscape:cy="107.43994"
     inkscape:window-width="1920"
     inkscape:window-height="1001"
     inkscape:window-x="-9"
     inkscape:window-y="1341"
     inkscape:window-maximized="1"
     inkscape:current-layer="svg34" /><rect
     style="opacity:0.999;fill:#ffffff;stroke:none;stroke-width:10;stroke-linecap:square;paint-order:markers fill stroke;fill-opacity:0.1"
     id="rect849"
     width="99.349014"
     height="56.824627"
     x="65.103714"
     y="60.587845" /><path
     style="fill:none;fill-opacity:1;fill-rule:nonzero;stroke:#460066;stroke-width:10;stroke-linecap:square;stroke-linejoin:miter;stroke-miterlimit:4;stroke-dasharray:none;stroke-opacity:0.2;paint-order:markers fill stroke"
     d="m 217.97658,224.65984 c -4.0839,2.36128 -8.2878,3.77991 -12.54502,5.00654 -10.25841,2.95593 -20.70215,4.61055 -31.42188,4.38923 -6.04919,-0.12533 -12.11837,0.23866 -18.15155,-0.10533 -5.06654,-0.28933 -10.13175,-1.07331 -15.12762,-2.01062 -11.37572,-2.13461 -22.40077,-5.63853 -33.50716,-8.83578 -8.269129,-2.37994 -16.570259,-4.75188 -24.992709,-6.4585 -9.64642,-1.95462 -19.32751,-3.76391 -29.29526,-3.81591 -7.97047,-0.0413 -15.93293,0.001 -23.83007,0.84131 -6.53317,0.69465 -12.92634,2.43594 -19.1341902,4.70122 -0.47332,0.17333 -0.94131,0.35999 -1.78929,0.17199 0.77065,-1.1653 1.51996,-2.34394 2.3159402,-3.49057 7.58915,-10.93173 14.20498,-22.43811 19.87817,-34.45914 2.62794,-5.5652 4.90655,-11.32905 6.89183,-17.15691 1.94529,-5.71185 3.43992,-11.58904 4.90655,-17.45023 1.31463,-5.24653 2.45593,-10.54507 3.42258,-15.8676 0.77464,-4.26523 1.37463,-8.58512 1.69729,-12.90768 0.82531,-11.01705 2.60393,-21.847433 5.11854,-32.613833 3.05592,-13.08901 7.39715,-25.7487 12.42769,-38.14039 3.55191,-8.747776 8.27846,-17.014236 14.2183,-24.451386 7.65181,-9.58243 17.60356,-15.4302804 29.791249,-16.7235804 11.23439,-1.1933 21.6208,1.17597 30.83123,8.4091204 6.35718,4.99188 10.50241,11.57305 14.88496,18.03022 6.50117,9.579756 10.56641,20.311486 14.00499,31.284546 2.4426,7.79182 4.83721,15.60229 7.06115,23.45942 1.18131,4.1759 2.10528,8.43979 2.8666,12.71435 0.65065,3.643903 0.88131,7.361143 1.3373,11.042383 0.78131,6.30784 1.3493,12.65434 2.45594,18.90619 1.2933,7.29715 2.92526,14.54363 4.68921,21.74345 1.08398,4.41589 2.65727,8.71579 4.07323,13.04634 2.07329,6.33851 4.1119,12.69169 6.34251,18.97553 1.27597,3.59591 2.70793,7.16515 4.41589,10.5744 3.80657,7.60381 7.83314,15.09562 11.76237,22.63677 1.4573,2.7986 2.88793,5.61186 4.40123,8.55445"
     id="path12-1"
     sodipodi:nodetypes="ccccccsccccccccsccccccccccsccccccc" /><path
     style="fill:#000000;fill-opacity:1;fill-rule:nonzero;stroke:none;stroke-width:0;stroke-linecap:square;stroke-linejoin:bevel;stroke-miterlimit:4;stroke-dasharray:none;stroke-opacity:0.976471;paint-order:fill markers stroke"
     d="m 71.87357,72.167664 c 2.40928,14.00499 10.895731,23.35409 20.387491,32.152526 4.66789,-4.843876 10.469079,-16.908906 9.361099,-21.631456 -11.034389,0.30133 -20.80748,-3.10258 -29.74859,-10.52107 z m 61.5318,32.541856 c 9.66109,-9.129106 18.09155,-18.382206 20.45949,-32.263196 -9.09311,7.40782 -18.9582,10.8624 -30.11525,10.45308 0.84398,8.33045 4.56389,15.12895 9.65576,21.810116 z m 84.57122,119.95033 c -4.0839,2.36128 -8.2878,3.77991 -12.54502,5.00654 -10.25841,2.95593 -20.70215,4.61055 -31.42188,4.38923 -6.04919,-0.12533 -12.11837,0.23866 -18.15155,-0.10533 -5.06654,-0.28933 -10.13175,-1.07331 -15.12762,-2.01062 -11.37572,-2.13461 -22.40077,-5.63853 -33.50716,-8.83578 -8.269129,-2.37994 -16.570259,-4.75188 -24.992709,-6.4585 -9.646431,-1.95462 -19.327521,-3.76391 -29.29527,-3.81591 -7.97047,-0.0413 -15.93293,0.001 -23.83007,0.84131 -6.53317,0.69465 -12.92634,2.43594 -19.1341902,4.70122 -0.47332,0.17333 -0.94131,0.35999 -1.78929,0.17199 0.77065,-1.1653 1.51996,-2.34394 2.3159402,-3.49057 7.58915,-10.93173 14.20498,-22.43811 19.87817,-34.45914 2.62794,-5.5652 4.90655,-11.32905 6.89183,-17.15691 1.94529,-5.71185 3.43992,-11.58904 4.90655,-17.45023 1.31463,-5.24653 2.45593,-10.54507 3.42258,-15.8676 0.77464,-4.26523 1.37463,-8.58512 1.69729,-12.90768 0.82531,-11.01706 2.60393,-21.847446 5.11854,-32.613846 3.05592,-13.08901 7.39715,-25.748693 12.427689,-38.140383 3.55191,-8.74778 8.27846,-17.01424 14.21831,-24.45139 7.651811,-9.58243 17.603561,-15.4302804 29.79125,-16.7235804 11.23439,-1.1933 21.6208,1.17597 30.83123,8.4091204 6.35718,4.99188 10.50241,11.57305 14.88496,18.03022 6.50117,9.57976 10.56641,20.31149 14.00499,31.28455 2.4426,7.791813 4.83721,15.602283 7.06115,23.459413 1.18131,4.1759 2.10528,8.43979 2.8666,12.71435 0.65065,3.643906 0.88131,7.361146 1.3373,11.042386 0.78131,6.30785 1.3493,12.65435 2.45594,18.9062 1.2933,7.29715 2.92526,14.54363 4.68921,21.74345 1.08398,4.41589 2.65727,8.71579 4.07323,13.04634 2.07329,6.33851 4.1119,12.69169 6.34251,18.97553 1.27597,3.59591 2.70793,7.16515 4.41589,10.5744 3.80657,7.60381 7.83314,15.09562 11.76237,22.63677 1.4573,2.7986 2.88793,5.61186 4.40123,8.55445"
     id="path12" /></svg>
