<?xml version="1.0" standalone="no"?>
<!DOCTYPE svg PUBLIC "-//W3C//DTD SVG 20010904//EN"
 "http://www.w3.org/TR/2001/REC-SVG-20010904/DTD/svg10.dtd">
<svg version="1.0" xmlns="http://www.w3.org/2000/svg"
 width="1944.000000pt" height="1849.000000pt" viewBox="0 0 1944.000000 1849.000000"
 preserveAspectRatio="xMidYMid meet">

<g transform="translate(0.000000,1849.000000) scale(0.100000,-0.100000)"
fill="#000000" stroke="none">
<path d="M10050 18480 c-762 -24 -1739 -144 -2535 -311 -2068 -436 -3764
-1284 -5019 -2509 -963 -941 -1658 -2099 -2061 -3435 -231 -768 -360 -1528
-416 -2455 -16 -257 -16 -1063 -1 -1310 96 -1523 467 -2816 1146 -3994 1114
-1931 3011 -3349 5391 -4029 1082 -310 2320 -468 3345 -428 1473 58 2814 401
4135 1056 1649 819 3066 2061 4050 3550 564 854 976 1794 1180 2695 104 459
148 812 166 1322 37 1061 -101 2194 -392 3218 -867 3049 -3094 5368 -5996
6246 -623 188 -1292 312 -1967 364 -132 10 -697 31 -761 28 -16 -1 -136 -5
-265 -8z m970 -1244 c1458 -125 2752 -596 3884 -1414 522 -377 1052 -884 1472
-1407 1018 -1267 1647 -2886 1799 -4625 36 -416 46 -977 25 -1315 -78 -1213
-577 -2460 -1446 -3615 -431 -573 -974 -1132 -1551 -1597 -1343 -1083 -2946
-1770 -4603 -1973 -572 -70 -1231 -79 -1820 -24 -1125 103 -2198 381 -3163
818 -1129 512 -2095 1251 -2813 2152 -840 1054 -1353 2332 -1518 3784 -50 437
-70 1122 -47 1590 97 1957 653 3496 1715 4746 148 174 547 572 728 726 1146
975 2601 1616 4443 1957 477 88 1160 171 1655 201 102 6 205 12 230 14 115 10
839 -4 1010 -18z"/>
<path d="M5353 9991 c-165 -61 -273 -213 -273 -384 0 -84 19 -144 100 -317
160 -340 368 -661 605 -935 82 -94 84 -99 49 -91 -32 6 -876 119 -1205 161
-196 24 -210 25 -280 11 -169 -36 -292 -165 -320 -337 -28 -175 66 -356 225
-430 60 -28 102 -35 623 -104 307 -40 691 -92 853 -114 1022 -140 1127 -146
1318 -68 l102 42 91 152 91 152 -21 126 c-32 190 -57 223 -396 529 -513 463
-795 827 -1015 1308 -79 171 -122 223 -227 275 -69 34 -84 38 -172 40 -75 3
-107 -1 -148 -16z"/>
<path d="M13853 9990 c-90 -32 -137 -74 -311 -283 -351 -419 -640 -727 -1087
-1159 -493 -476 -586 -583 -649 -746 -27 -69 -28 -81 -24 -187 l4 -113 75
-117 74 -117 90 -46 c224 -116 376 -112 1515 39 433 57 804 105 1145 149 204
26 249 35 300 59 90 42 148 100 192 189 37 73 38 80 38 181 0 98 -2 111 -32
173 -59 125 -168 207 -306 231 -55 9 -105 5 -397 -32 -413 -52 -1292 -168
-1340 -177 -32 -5 -13 16 215 248 278 281 391 402 611 654 214 245 359 423
388 477 94 178 36 413 -131 528 -99 69 -256 89 -370 49z"/>
<path d="M13765 5646 c-139 -39 -234 -90 -461 -247 -153 -107 -185 -137 -221
-215 -77 -167 -3 -368 165 -451 50 -25 68 -28 147 -27 110 1 137 12 294 123
63 44 117 79 119 76 3 -3 -1 -118 -8 -256 -15 -284 -12 -309 45 -396 62 -94
161 -145 286 -145 62 -1 87 4 137 27 71 32 143 103 172 168 31 71 44 214 45
497 0 222 -3 279 -19 350 -59 268 -173 420 -370 489 -110 39 -210 41 -331 7z"/>
<path d="M5490 5324 c-227 -40 -396 -128 -546 -285 -207 -218 -345 -577 -348
-904 0 -89 2 -106 27 -160 46 -98 116 -159 217 -189 124 -37 259 0 346 95 66
73 82 118 94 265 15 175 71 322 162 420 52 56 94 74 192 83 101 10 175 41 234
102 164 168 114 447 -98 548 -47 22 -70 26 -155 28 -55 0 -111 -1 -125 -3z"/>
<path d="M12762 4384 c-74 -19 -100 -35 -189 -110 -354 -298 -560 -452 -848
-630 -170 -106 -176 -109 -345 -199 -1041 -556 -2183 -727 -3192 -479 -531
130 -979 364 -1335 696 -66 61 -119 101 -163 122 -60 29 -73 31 -175 31 -104
0 -114 -2 -176 -32 -80 -39 -159 -120 -197 -200 -24 -52 -27 -69 -27 -168 0
-99 3 -116 27 -168 38 -82 72 -121 201 -234 247 -218 439 -351 722 -498 893
-467 2018 -599 3130 -369 418 87 831 222 1240 409 523 238 997 538 1499 948
218 178 269 231 309 314 30 63 32 75 32 173 0 97 -2 110 -32 172 -87 183 -285
275 -481 222z"/>
</g>
</svg>
