<?xml version="1.0" encoding="UTF-8" standalone="no"?>
<svg
   xmlns:dc="http://purl.org/dc/elements/1.1/"
   xmlns:cc="http://creativecommons.org/ns#"
   xmlns:rdf="http://www.w3.org/1999/02/22-rdf-syntax-ns#"
   xmlns:svg="http://www.w3.org/2000/svg"
   xmlns="http://www.w3.org/2000/svg"
   viewBox="0 0 1020.36 1000.7333"
   height="1000.7333"
   width="1020.36"
   xml:space="preserve"
   id="svg2"
   version="1.1"><metadata
     id="metadata8"><rdf:RDF><cc:Work
         rdf:about=""><dc:format>image/svg+xml</dc:format><dc:type
           rdf:resource="http://purl.org/dc/dcmitype/StillImage" /></cc:Work></rdf:RDF></metadata><defs
     id="defs6" /><g
     transform="matrix(1.3333333,0,0,-1.3333333,0,1000.7333)"
     id="g10"><g
       transform="scale(0.1)"
       id="g12"><path
         id="path14"
         style="fill:#050606;fill-opacity:1;fill-rule:nonzero;stroke:none"
         d="m 5013.36,3396.39 c 358.89,-405.02 935.85,-588.43 1477.51,-465.32 83.86,18.87 167.27,45.49 247.94,79.14 84.86,35.51 167.07,79.44 244.39,130.58 515.56,340.54 769.82,974.3 632.69,1577 -135.22,595.55 -607.99,1041.18 -1208.16,1141.59 -6.47,-71.82 -17.86,-142.77 -34.02,-211.83 498.37,-97.71 889.64,-476.14 1002.91,-974.42 117.28,-515.4 -88.3,-1041.7 -523.68,-1340.85 -82.62,-57.2 -172.82,-104.6 -267.97,-140.9 -56.27,-21.39 -115.03,-39.18 -174.66,-52.83 -434.74,-98.88 -893.86,37.76 -1204.75,357.03 -66.51,-26.97 -130.93,-60.2 -192.2,-99.19" /><path
         id="path16"
         style="fill:#050606;fill-opacity:1;fill-rule:nonzero;stroke:none"
         d="m 4184.44,2631.77 c -91,-536.77 113.82,-1076.72 540.72,-1417.77 76.72,-61.35 159.33,-114.97 245.55,-159.38 82.65,-42.99 169.13,-78.018 257.09,-104.108 587.09,-176.051 1213.28,19.918 1595.76,498.998 365.85,458 429.36,1083.41 166.21,1604.51 -58.88,-36.68 -120.27,-69.46 -183.19,-97.83 225.37,-447.23 170.82,-983.51 -143.29,-1377.55 -329.65,-412.57 -869.19,-580.359 -1374.78,-427.38 -98.2,30.06 -191.45,71.07 -277.17,122.02 -53.57,31.48 -104.19,66.28 -150.32,103.37 -348.68,278.07 -528.18,722.31 -472.13,1164.57 -65.68,36.71 -134.21,67.06 -204.45,90.55" /><path
         id="path18"
         style="fill:#050606;fill-opacity:1;fill-rule:nonzero;stroke:none"
         d="m 4290.57,2983.89 c 68.38,-22.39 135.15,-49.68 199.36,-81.39 43.78,98.25 100.46,191.11 168.8,276.57 79.18,99.3 172.12,185.84 276.23,257.29 83.78,57.42 173.66,104.56 267.19,140.12 423.09,161.87 905.53,86.95 1259.08,-195.38 42.91,-34.35 83.22,-70.91 120.08,-108.9 67.36,27.36 131.9,60.67 192.57,99.44 -56.53,63.41 -118.89,122.43 -185.84,175.9 -435.16,347.58 -1022.62,424.26 -1532.96,200.04 -88.34,-39.02 -171.93,-85.83 -248.5,-139.14 -119.18,-82.55 -225.65,-182.1 -316.57,-296.06 -80.75,-100.86 -147.74,-211.18 -199.44,-328.49" /><path
         id="path20"
         style="fill:#050606;fill-opacity:1;fill-rule:nonzero;stroke:none"
         d="m 4969.17,4729.81 c -21.35,-71.95 -35.74,-145.43 -42.96,-219.21 543.39,30.25 1024.35,349.62 1262.3,841.42 42.65,88.56 76.68,181.03 101.16,274.75 23.62,89.73 38.69,183.25 44.79,277.98 39.77,609.52 -290.03,1175.16 -840.22,1441.14 -535.31,258.85 -1164.08,175.59 -1613.67,-210.37 48.93,-47.55 94.35,-97.91 135.67,-150.36 387.19,328.52 927.06,398.3 1387.34,175.86 475.64,-229.91 758.91,-718.88 721.68,-1245.71 -7.22,-100.67 -26.48,-200.66 -57.2,-297.21 -19,-58.54 -41.8,-115.54 -67.86,-169.59 -194.1,-401.57 -587.53,-675.06 -1031.03,-718.7" /><path
         id="path22"
         style="fill:#050606;fill-opacity:1;fill-rule:nonzero;stroke:none"
         d="m 4671.07,4740.7 c -20.15,-83.35 -33.2,-168.12 -38.77,-252.4 -10.21,-142.96 1.08,-288.36 33.57,-432.33 28.71,-126.03 73.19,-247.19 132.45,-360.76 59.45,38.91 122.55,74.17 188.31,105.27 -49.99,96.7 -87.25,198.95 -110.99,304.52 -27.75,122.66 -37.57,246.55 -29.2,368.2 6.21,102.32 25.46,204.76 57.27,304.18 137.39,431.36 496.96,761.73 938.28,862.12 53.5,12.19 107.41,20.98 160.57,26.16 20.52,69.47 34.77,140.69 42.5,212.47 -84.07,-4.43 -169.32,-16.3 -253.91,-35.38 C 5247.8,5719.4 4821.43,5307.92 4678.55,4768.91 l -7.48,-28.21" /><path
         id="path24"
         style="fill:#050606;fill-opacity:1;fill-rule:nonzero;stroke:none"
         d="m 5072.32,1326.45 c 62.24,-35.15 128.48,-64.87 197.68,-88.69 14.58,84.72 21.95,170.37 21.95,255.23 0,557.19 -306.78,1064.04 -800.63,1322.82 l -0.15,0.07 c -83.48,44.19 -172.08,80.3 -263.22,107.37 -263.38,78.92 -548.71,82.96 -812.99,12.97 24.58,-66.73 44.7,-136.07 60.02,-207.03 224.87,58.88 467.61,54.99 690.54,-11.22 98.43,-28.96 194.17,-70.54 284.45,-123.52 390.23,-230.32 632.59,-654.12 632.59,-1106.06 0,-54.05 -3.44,-108.45 -10.24,-161.94" /><path
         id="path26"
         style="fill:#050606;fill-opacity:1;fill-rule:nonzero;stroke:none"
         d="m 3073.88,2798.43 c -474.8,-263.79 -767.91,-760.07 -767.91,-1305.44 0,-95.18 9.05,-190.77 26.9,-284.12 17.61,-90.62 43.72,-180.2 77.63,-266.108 C 2637.8,370.07 3182.8,0 3798.96,0 c 595.16,0 1126.92,347.859 1366.18,889.859 -65.57,21.539 -130.1,47.711 -192.72,78.18 -205.94,-464.32 -661.67,-762.09 -1172.3,-762.09 -532.15,0 -1001.14,320.16 -1194.83,815.621 -37.05,95.07 -62.68,193.84 -76.17,293.66 -7.59,57.64 -11.44,115.86 -11.44,173.16 0,443.61 233.54,860.04 611.22,1093.13 -11.35,73.83 -29.78,146.55 -55.02,216.91" /><path
         id="path28"
         style="fill:#050606;fill-opacity:1;fill-rule:nonzero;stroke:none"
         d="m 3835.52,4900.37 c 107.15,-97.59 227.94,-179.22 359.12,-242.61 116.49,-56.43 238.96,-97.32 364.69,-121.83 6.69,71.09 18.39,142.27 34.87,212.51 -105.5,21.22 -208.56,55.91 -306.92,103.39 -111.94,54.02 -214.96,123.6 -306.22,206.79 -76.19,69.56 -144.15,148.53 -202.01,234.72 -251.6,376.99 -285.45,864.15 -88.43,1271.45 23.94,48.88 50.71,96.19 79.82,141.09 -41.93,60.06 -88.79,115.65 -139.8,165.93 -49.3,-68.93 -93,-142.79 -130.23,-220.1 -242.48,-501.59 -186.99,-1091.42 144.81,-1539.35 57.16,-77.34 121.18,-148.68 190.3,-211.99" /><path
         id="path30"
         style="fill:#050606;fill-opacity:1;fill-rule:nonzero;stroke:none"
         d="m 3857.09,5314.93 c 42.92,-61.14 91.29,-118.21 144.38,-170.25 315.83,443.59 366.37,1018.66 130.1,1511.29 -41.79,87.64 -92.79,171.88 -151.56,250.51 -53.19,71.64 -114.43,139.53 -182.1,201.89 v 0.02 c -452.09,417.19 -1102.69,514.97 -1657.61,248.93 -537.2,-257.2 -866.48,-800.68 -847.7,-1392.79 68.66,8.86 138.06,13.25 207.28,12.78 -14.86,507.78 267.58,973.29 728.31,1194.1 476.86,228.01 1035.55,144.07 1423.33,-213.87 73.57,-67.26 139.85,-144.7 196.86,-230.05 32.23,-47.7 62.66,-101.11 90.32,-158.55 192.9,-402.44 161.17,-880.46 -81.61,-1254.01" /><path
         id="path32"
         style="fill:#050606;fill-opacity:1;fill-rule:nonzero;stroke:none"
         d="m 2732.23,4518.39 c 96.58,-3.1 192.3,2.72 284.03,17.17 142.69,22.44 281.97,65.91 413.98,129.16 116.02,55.38 224.3,125.44 322.46,208.53 -51.16,49.61 -99.37,103.39 -143.97,160.55 -82.4,-69.5 -173.9,-128.43 -272.58,-175.54 -112.07,-53.72 -230.77,-90.75 -352.73,-110.08 -101.69,-16.77 -205.81,-20.58 -309.12,-11.42 -451.03,38.21 -852.91,315.53 -1048.66,723.67 -23.46,48.94 -43.85,99.52 -60.73,150.66 -72.84,4.68 -145.43,2.71 -216.61,-5.77 23.28,-82.17 53.71,-162.48 90.63,-239.21 240.7,-502.74 736.25,-827.54 1293.3,-847.72" /><path
         id="path34"
         style="fill:#050606;fill-opacity:1;fill-rule:nonzero;stroke:none"
         d="m 2608.62,1300.68 c 11.19,-71.28 28.95,-141.94 53.02,-210.77 71.73,39.55 140.95,85.73 206.26,137.54 436.15,345.66 643.1,899.99 540.09,1446.71 -17.85,94.7 -44.58,186.66 -79.42,273.43 -53.22,134.96 -126.55,261.77 -218.05,377.14 -80.22,101.35 -172.58,191.48 -274.96,268.42 -37.26,-61.62 -78.94,-120.68 -124.43,-176.31 86.43,-65.53 164.2,-141.68 231.61,-226.77 78.39,-98.97 141.33,-207.72 187.05,-323.19 38.55,-96.2 64.98,-197.13 78.53,-299.94 60.92,-446.64 -120.66,-898.09 -473.92,-1178.18 -39.69,-31.51 -81.91,-61.04 -125.78,-88.08" /><path
         id="path36"
         style="fill:#050606;fill-opacity:1;fill-rule:nonzero;stroke:none"
         d="m 913.766,3031.26 c 78.211,-32.64 160.684,-59.3 243.914,-78.4 542.77,-125.16 1105.67,59.51 1468.77,482.23 62.07,71.82 117.29,150.1 164.17,232.83 71.73,125.91 124.72,261.65 157.56,403.58 29.01,125.91 41.67,254.35 37.7,382.39 -70.19,-9.03 -142.42,-13.16 -215,-12.82 2.82,-107.6 -8.22,-215.77 -32.93,-322.16 -27.63,-120.59 -72.62,-236.33 -133.69,-343.92 -50.69,-90.11 -112.75,-173.91 -184.44,-249.21 -311.09,-328.61 -778.47,-469.67 -1219.58,-368.09 -53.59,12.57 -105.93,28.19 -155.98,46.58 -48.787,-53.76 -92.53,-111.74 -130.494,-173.01" /><path
         id="path38"
         style="fill:#050606;fill-opacity:1;fill-rule:nonzero;stroke:none"
         d="m 1491.96,5900.77 c -76.81,0 -153.88,-6 -229.73,-17.91 C 656.672,5787.68 176.41,5340.37 38.7227,4743.34 -95.1133,4162.83 124.332,3566.42 598.707,3211.93 c 35.758,59 75.723,115.86 119.293,169.81 -406.109,304.83 -593.801,815.97 -479.043,1314.1 118.77,514.75 532.934,899.18 1055.163,979.39 l 3.62,0.45 c 97.77,15.06 198.35,18.32 299.06,9.81 59.54,-5.1 120.17,-14.64 180.23,-28.39 434.49,-100.35 788.29,-423.33 929.21,-846.04 74.44,-4.99 149.19,-2.78 222.95,6.58 -149.76,523.5 -567.71,921.85 -1100.03,1044.68 -95.68,22 -193.41,34.67 -290.4,37.7 -15.57,0.5 -31.19,0.75 -46.8,0.75" /><path
         id="path40"
         style="fill:#050606;fill-opacity:1;fill-rule:nonzero;stroke:none"
         d="m 1940.07,3891.34 c -330.54,0 -657.26,-110.19 -926.81,-323.99 C 935.824,3505.89 864.996,3437.44 802.77,3363.98 742.602,3293.47 689.121,3217.29 643.758,3137.43 339.836,2605.03 389.652,1950.58 770.637,1470.08 1142.69,1000.71 1748.67,800.852 2324.27,954.238 c -23.67,65.052 -43.13,131.832 -58.12,199.452 -494.32,-131.52 -1013.85,40 -1333.486,443.38 -328.293,414.34 -370.258,977.98 -106.922,1435.94 49.836,87.29 110.512,168.98 180.328,242.67 45.16,46.88 89.25,87.1 135.03,123.18 349.25,276.83 822.3,351.82 1240.53,198.21 50.44,55.29 95.47,115.23 134.34,178.74 -186.06,77.46 -381.65,115.53 -575.9,115.53" /></g></g></svg>