<?xml version="1.0" encoding="UTF-8" standalone="no"?>
<!-- Gray:ified logotype for the TÃ˜NDÃ˜V mottagningsgrupp, 2022. Referenced in indices by ð†”. -->
<svg
   version="1.1"
   width="375px"
   height="375px"
   style="shape-rendering:geometricPrecision; text-rendering:geometricPrecision; image-rendering:optimizeQuality; fill-rule:evenodd; clip-rule:evenodd"
   id="svg118"
   sodipodi:docname="tondov.svg"
   inkscape:version="1.2 (dc2aedaf03, 2022-05-15)"
   xmlns:inkscape="http://www.inkscape.org/namespaces/inkscape"
   xmlns:sodipodi="http://sodipodi.sourceforge.net/DTD/sodipodi-0.dtd"
   xmlns="http://www.w3.org/2000/svg"
   xmlns:svg="http://www.w3.org/2000/svg">
  <defs
     id="defs122" />
  <sodipodi:namedview
     id="namedview120"
     pagecolor="#ffffff"
     bordercolor="#666666"
     borderopacity="1.0"
     inkscape:showpageshadow="2"
     inkscape:pageopacity="0.0"
     inkscape:pagecheckerboard="true"
     inkscape:deskcolor="#d1d1d1"
     showgrid="false"
     inkscape:zoom="3.1414397"
     inkscape:cx="127.33015"
     inkscape:cy="124.30606"
     inkscape:window-width="1920"
     inkscape:window-height="991"
     inkscape:window-x="-9"
     inkscape:window-y="1341"
     inkscape:window-maximized="1"
     inkscape:current-layer="svg118" />
  <path
     id="path2"
     style="fill:#000000;fill-opacity:0.53333336"
     d="M 173.5 -0.5 C 137.58104 2.8626366 104.91497 15.029321 75.5 36 C 30.724445 70.976865 5.3910341 116.81006 -0.5 173.5 L -0.5 200.5 C 2.8626366 236.41896 15.029321 269.08503 36 298.5 C 70.976865 343.27596 116.81006 368.60901 173.5 374.5 L 200.5 374.5 C 236.41896 371.137 269.08503 358.97098 298.5 338 C 343.27596 303.02303 368.60901 257.18994 374.5 200.5 L 374.5 173.5 C 371.137 137.58104 358.97098 104.91497 338 75.5 C 303.02303 30.724445 257.18994 5.3910341 200.5 -0.5 L 173.5 -0.5 z M 182.78711 8.2070312 C 253.11419 8.7730514 306.8516 39.870124 344 101.5 C 372.60297 158.44594 372.60297 215.44606 344 272.5 C 302.53804 340.81493 241.70492 371.31499 161.5 364 C 83.915778 349.08301 34.415679 303.58292 13 227.5 C -0.94773305 155.67207 19.552355 95.838952 74.5 48 C 102.26697 26.281522 133.60003 13.114795 168.5 8.5 C 173.33593 8.2663402 178.09864 8.1692966 182.78711 8.2070312 z " />
  <path
     id="path18"
     d="M 286.5 43 C 282.559 43.799096 278.893 45.465712 275.5 48 C 269.33604 52.66708 263.33596 57.50042 257.5 62.5 C 254.526 65.137888 251.526 67.804612 248.5 70.5 C 240.09104 76.915376 231.42396 82.915424 222.5 88.5 C 218.817 92.180284 214.817 95.513612 210.5 98.5 C 200.53704 106.81796 189.86996 114.15204 178.5 120.5 C 167.19604 129.84696 156.19596 139.68104 145.5 150 C 139.80404 154.176 134.13696 158.343 128.5 162.5 C 124.04 166.617 120.373 171.28404 117.5 176.5 C 116.817 182.10296 118.151 187.103 121.5 191.5 C 124.431 193.797 127.764 195.297 131.5 196 C 139.15896 196.5 146.82604 196.666 154.5 196.5 C 163.88796 196.494 173.22104 195.828 182.5 194.5 C 207.35892 191.857 232.02608 188.02296 256.5 183 C 260.5 182.333 264.5 182.333 268.5 183 C 255.83604 193.98796 242.83596 204.48804 229.5 214.5 C 226.859 216.804 224.192 219.138 221.5 221.5 C 216.16704 226.167 210.83296 230.833 205.5 235.5 C 201.167 239.5 196.833 243.5 192.5 247.5 C 185.19304 254.47196 177.85996 261.47204 170.5 268.5 C 170.5 269.167 170.167 269.5 169.5 269.5 C 165.575 274.323 161.409 278.99 157 283.5 C 155.989 273.98004 152.15596 265.81296 145.5 259 C 148.222 256.642 151.222 254.809 154.5 253.5 C 156.223 251.782 158.223 250.449 160.5 249.5 C 162.994 247.401 165.327 245.068 167.5 242.5 C 166.833 242.167 166.167 241.833 165.5 241.5 C 162.87 242.378 160.203 243.045 157.5 243.5 C 154.912 245.625 151.912 246.958 148.5 247.5 C 145.616 249.527 142.45 251.194 139 252.5 C 128.91704 246.03304 118.08396 241.7 106.5 239.5 C 99.775628 239.244 93.108972 239.577 86.5 240.5 C 76.46784 243.029 69.301084 249.02904 65 258.5 C 63.353208 271.39196 67.186536 282.39204 76.5 291.5 C 71.54812 296.96396 66.214776 301.964 60.5 306.5 C 61.333296 306.833 62.166704 307.167 63 307.5 C 70.377072 305.144 77.043724 301.478 83 296.5 C 100.77992 309.65096 120.28008 312.98396 141.5 306.5 C 145.909 303.633 149.909 300.299 153.5 296.5 C 153.369 295.761 153.536 295.094 154 294.5 C 168.70596 281.62304 183.53904 268.95696 198.5 256.5 C 202.183 252.82 206.183 249.486 210.5 246.5 C 211.5 244.833 212.833 243.5 214.5 242.5 C 219.167 238.833 223.833 235.167 228.5 231.5 C 242.03296 220.47904 256.03304 209.97896 270.5 200 L 283 187.5 C 286.494 181.80904 286.327 176.30896 282.5 171 C 275.49704 167.818 268.16396 166.818 260.5 168 C 228.12712 174.45796 195.45988 178.625 162.5 180.5 C 154.01604 181.493 145.34896 181.826 136.5 181.5 L 132.5 181.5 C 132.229 179.62 132.896 178.287 134.5 177.5 C 137.928 172.736 142.26204 169.07 147.5 166.5 C 158.56896 155.78404 169.90304 145.28396 181.5 135 C 193.38096 125.90404 205.38104 117.07096 217.5 108.5 C 220.543 104.456 224.209 101.123 228.5 98.5 C 236.09096 91.367228 244.09104 84.700576 252.5 78.5 C 254.833 75.500012 257.5 72.833292 260.5 70.5 C 260.897 69.475004 261.563 69.308304 262.5 70 L 292.5 94 C 295.667 97.166688 298.833 100.333 302 103.5 C 308.60296 112.38996 307.43596 120.22304 298.5 127 C 287.30504 130.737 275.97196 133.904 264.5 136.5 C 261.888 137.779 259.555 139.445 257.5 141.5 C 255.688 143.461 254.688 145.794 254.5 148.5 C 255.91 144.786 258.577 142.452 262.5 141.5 C 265.314 140.835 268.314 140.502 271.5 140.5 C 278.85396 140.948 286.18704 141.615 293.5 142.5 C 297.555 142.425 301.555 141.925 305.5 141 C 321.13692 135.06104 329.137 123.72792 329.5 107 C 328.516 95.532244 324.34996 85.365464 317 76.5 C 307.20204 65.034044 297.03596 53.867256 286.5 43 z M 97.5 256.5 C 100.445 261.445 103.779 266.112 107.5 270.5 C 101.69102 273.907 96.024788 277.574 90.5 281.5 C 82.125416 270.03302 84.458726 261.69998 97.5 256.5 z M 120.5 259.5 C 123.46 260.032 123.793 260.699 121.5 261.5 C 121.167 260.833 120.833 260.167 120.5 259.5 z M 130.26562 268.61133 C 130.849 268.61133 131.4275 268.908 132 269.5 C 133.411 271.65 134.245 273.984 134.5 276.5 C 131.8 274.766 129.8 272.432 128.5 269.5 C 129.094 268.908 129.68228 268.61133 130.26562 268.61133 z M 114.5 278.5 C 118.195 282.526 121.862 286.526 125.5 290.5 C 124.391 291.29 123.058 291.79 121.5 292 C 116.50001 292.667 111.49999 292.667 106.5 292 C 103.554 291.194 100.888 289.861 98.5 288 C 103.393 284.055 108.72701 280.888 114.5 278.5 z "
     style="fill:#000000;fill-opacity:1;stroke:none;stroke-opacity:1;stroke-width:4;stroke-dasharray:none" />
  <g
     id="g48">
    <path
       style="opacity:1"
       fill="#1d1918"
       d="M 262.5,141.5 C 260.559,145.882 258.226,150.049 255.5,154C 254.517,154.591 253.85,154.257 253.5,153C 254.148,151.56 254.481,150.06 254.5,148.5C 255.91,144.786 258.577,142.452 262.5,141.5 Z"
       id="path46" />
  </g>
  <g
     id="g84">
    <path
       style="opacity:1"
       fill="#111010"
       d="M 160.5,249.5 C 164.594,255.351 167.927,261.685 170.5,268.5C 170.5,269.167 170.167,269.5 169.5,269.5C 166.944,268.457 164.777,266.79 163,264.5C 159.951,260.957 157.118,257.291 154.5,253.5C 156.223,251.782 158.223,250.449 160.5,249.5 Z"
       id="path82" />
  </g>
  <g
     id="g2017"
     style="fill:#000000;fill-opacity:0.75213677">
    <g
       id="g12"
       style="fill:#000000;fill-opacity:0.75213677">
      <path
         style="opacity:1;fill:#000000;fill-opacity:0.75213677"
         fill="#040404"
         d="M 257.5,62.5 C 254.526,65.1379 251.526,67.8046 248.5,70.5C 240.692,54.2218 227.692,45.0552 209.5,43C 173.286,42.8492 140.619,53.5159 111.5,75C 78.603,104.052 68.4364,139.885 81,182.5C 86.7984,202.759 95.2984,221.759 106.5,239.5C 99.7756,239.244 93.109,239.577 86.5,240.5C 73.4886,218.298 64.8219,194.465 60.5,169C 53.1142,111.1 75.7809,69.7664 128.5,45C 152.802,33.0068 178.469,27.3401 205.5,28C 229.85,29.3162 247.183,40.8162 257.5,62.5 Z"
         id="path10" />
    </g>
    <g
       id="g24"
       style="fill:#000000;fill-opacity:0.75213677">
      <path
         style="opacity:1;fill:#000000;fill-opacity:0.75213677"
         fill="#050505"
         d="M 222.5,88.5 C 218.817,92.1803 214.817,95.5136 210.5,98.5C 202.035,89.613 191.535,85.2796 179,85.5C 162.811,87.6775 148.311,93.8441 135.5,104C 121.57,118.282 115.237,135.449 116.5,155.5C 116.634,162.517 116.967,169.517 117.5,176.5C 116.817,182.103 118.151,187.103 121.5,191.5C 125.858,201.699 132.024,210.699 140,218.5C 146.336,226.513 152.169,234.846 157.5,243.5C 154.912,245.625 151.912,246.958 148.5,247.5C 136.674,234.532 124.841,221.532 113,208.5C 106.067,196.033 101.733,182.699 100,168.5C 94.3984,110.323 120.398,76.9898 178,68.5C 195.966,68.5729 210.8,75.2395 222.5,88.5 Z"
         id="path22" />
    </g>
    <g
       id="g28"
       style="fill:#000000;fill-opacity:0.75213677">
      <path
         style="opacity:1;fill:#000000;fill-opacity:0.75213677"
         fill="#090807"
         d="M 260.5,70.5 C 263.851,77.7107 266.018,85.3774 267,93.5C 268.207,107.983 267.374,122.317 264.5,136.5C 261.888,137.779 259.555,139.445 257.5,141.5C 261.253,120.054 259.587,99.0542 252.5,78.5C 254.833,75.5 257.5,72.8333 260.5,70.5 Z"
         id="path26" />
    </g>
    <g
       id="g40"
       style="fill:#000000;fill-opacity:0.75213677">
      <path
         style="opacity:1;fill:#000000;fill-opacity:0.75213677"
         fill="#050505"
         d="M 228.5,98.5 C 237.967,127.392 227.967,146.225 198.5,155C 191.864,156.609 185.197,156.776 178.5,155.5C 185.405,152.385 192.405,149.219 199.5,146C 209.24,141.263 215.74,133.763 219,123.5C 219.908,118.311 219.408,113.311 217.5,108.5C 220.543,104.456 224.209,101.123 228.5,98.5 Z"
         id="path38" />
    </g>
    <g
       id="g44"
       style="fill:#000000;fill-opacity:0.75213677">
      <path
         style="opacity:1;fill:#000000;fill-opacity:0.75213677"
         fill="#0b0807"
         d="M 178.5,120.5 C 167.196,129.847 156.196,139.681 145.5,150C 139.804,154.176 134.137,158.343 128.5,162.5C 128.764,151.139 133.431,141.973 142.5,135C 152.818,126.008 164.818,121.175 178.5,120.5 Z"
         id="path42" />
    </g>
    <g
       id="g52"
       style="fill:#000000;fill-opacity:0.75213677">
      <path
         style="opacity:1;fill:#000000;fill-opacity:0.75213677"
         fill="#070403"
         d="M 147.5,166.5 C 151.217,172.55 156.217,177.217 162.5,180.5C 154.016,181.493 145.349,181.826 136.5,181.5C 135.833,180.167 135.167,178.833 134.5,177.5C 137.928,172.736 142.262,169.07 147.5,166.5 Z"
         id="path50" />
    </g>
    <g
       id="g68"
       style="fill:#000000;fill-opacity:0.75213677">
      <path
         style="opacity:1;fill:#000000;fill-opacity:0.75213677"
         fill="#060404"
         d="M 182.5,194.5 C 186.137,197.306 189.304,200.639 192,204.5C 196.993,214.656 201.493,224.989 205.5,235.5C 201.167,239.5 196.833,243.5 192.5,247.5C 187.288,235.695 181.788,224.028 176,212.5C 168.65,207.303 161.483,201.97 154.5,196.5C 163.888,196.494 173.221,195.828 182.5,194.5 Z"
         id="path66" />
    </g>
    <g
       id="g72"
       style="fill:#000000;fill-opacity:0.75213677">
      <path
         style="opacity:1;fill:#000000;fill-opacity:0.75213677"
         fill="#191514"
         d="M 229.5,214.5 C 226.859,216.804 224.192,219.138 221.5,221.5C 222.318,215.726 223.984,210.226 226.5,205C 227.744,204.544 228.577,205.044 229,206.5C 229.497,209.146 229.664,211.813 229.5,214.5 Z"
         id="path70" />
    </g>
    <g
       id="g76"
       style="fill:#000000;fill-opacity:0.75213677">
      <path
         style="opacity:1;fill:#000000;fill-opacity:0.75213677"
         fill="#080605"
         d="M 228.5,231.5 C 229.633,242.442 226.633,252.275 219.5,261C 215.738,263.156 211.738,263.823 207.5,263C 204.117,261.314 201.117,259.147 198.5,256.5C 202.183,252.82 206.183,249.486 210.5,246.5C 211.117,246.611 211.617,246.944 212,247.5C 213.372,246.09 214.205,244.423 214.5,242.5C 219.167,238.833 223.833,235.167 228.5,231.5 Z"
         id="path74" />
    </g>
    <g
       id="g92"
       style="fill:#000000;fill-opacity:0.75213677">
      <path
         style="opacity:1;fill:#000000;fill-opacity:0.75213677"
         fill="#090504"
         d="M 120.5,259.5 C 120.833,260.167 121.167,260.833 121.5,261.5C 116.87,264.486 112.203,267.486 107.5,270.5C 103.779,266.112 100.445,261.445 97.5,256.5C 105.41,254.704 113.077,255.704 120.5,259.5 Z"
         id="path90" />
    </g>
    <g
       id="g108"
       style="fill:#000000;fill-opacity:0.75213677">
      <path
         style="opacity:1;fill:#000000;fill-opacity:0.75213677"
         fill="#0a0605"
         d="M 128.5,269.5 C 129.8,272.432 131.8,274.766 134.5,276.5C 134.496,283.192 131.496,287.859 125.5,290.5C 121.862,286.526 118.195,282.526 114.5,278.5C 119.13,275.514 123.797,272.514 128.5,269.5 Z"
         id="path106" />
    </g>
    <g
       id="g112"
       style="fill:#000000;fill-opacity:0.75213677">
      <path
         style="opacity:1;fill:#000000;fill-opacity:0.75213677"
         fill="#080808"
         d="M 141.5,306.5 C 145.909,303.633 149.909,300.299 153.5,296.5C 165.995,307.803 179.995,316.97 195.5,324C 231.423,337.127 250.257,324.627 252,286.5C 253.223,282.385 255.223,278.718 258,275.5C 256.849,286.392 256.182,297.392 256,308.5C 253.382,325.118 243.882,335.284 227.5,339C 214.878,341.591 202.545,340.591 190.5,336C 172.484,328.671 156.15,318.838 141.5,306.5 Z"
         id="path110" />
    </g>
  </g>
</svg>
